<?xml version="1.0" encoding="UTF-8" standalone="no"?>
<svg
   xmlns:dc="http://purl.org/dc/elements/1.1/"
   xmlns:cc="http://creativecommons.org/ns#"
   xmlns:rdf="http://www.w3.org/1999/02/22-rdf-syntax-ns#"
   xmlns:svg="http://www.w3.org/2000/svg"
   xmlns="http://www.w3.org/2000/svg"
   xmlns:sodipodi="http://sodipodi.sourceforge.net/DTD/sodipodi-0.dtd"
   xmlns:inkscape="http://www.inkscape.org/namespaces/inkscape"
   version="1.0"
   width="1000.000000pt"
   height="1000.000000pt"
   viewBox="0 0 1000.000000 1000.000000"
   preserveAspectRatio="xMidYMid meet"
   id="svg38"
   sodipodi:docname="animalicon3.svg"
   inkscape:version="1.0beta1 (32d4812, 2019-09-19)">
  <defs
     id="defs42" />
  <sodipodi:namedview
     pagecolor="#ffffff"
     bordercolor="#666666"
     inkscape:document-rotation="0"
     borderopacity="1"
     objecttolerance="10"
     gridtolerance="10"
     guidetolerance="10"
     inkscape:pageopacity="0"
     inkscape:pageshadow="2"
     inkscape:window-width="1600"
     inkscape:window-height="1155"
     id="namedview40"
     showgrid="false"
     inkscape:zoom="0.35"
     inkscape:cx="666.66667"
     inkscape:cy="666.66667"
     inkscape:window-x="0"
     inkscape:window-y="23"
     inkscape:window-maximized="0"
     inkscape:current-layer="svg38" />
  <metadata
     id="metadata10">
Created by potrace 1.15, written by Peter Selinger 2001-2017
<rdf:RDF>
  <cc:Work
     rdf:about="">
    <dc:format>image/svg+xml</dc:format>
    <dc:type
       rdf:resource="http://purl.org/dc/dcmitype/StillImage" />
  </cc:Work>
</rdf:RDF>
</metadata>
  <g
     transform="matrix(0.1,0,0,-0.1,-7.5000153,1066.2006)"
     fill="#000000"
     stroke="none"
     id="g36"
     style="fill:#005100">
    <path
       inkscape:connector-curvature="0"
       d="m 1414,9120 c -29,-11 -62,-55 -74,-99 -15,-51 -47,-274 -59,-411 -11,-121 -1,-347 20,-438 6,-26 26,-128 44,-227 68,-364 136,-665 190,-845 31,-102 72,-246 92,-320 19,-74 50,-187 68,-250 18,-63 41,-162 50,-220 9,-58 34,-172 55,-255 21,-82 50,-206 65,-275 34,-162 96,-419 141,-590 73,-276 221,-571 375,-745 29,-33 77,-94 108,-135 132,-179 247,-285 507,-465 216,-150 290,-222 414,-407 55,-82 125,-180 154,-216 30,-37 87,-116 128,-175 70,-101 285,-344 473,-533 63,-63 100,-90 170,-126 123,-62 304,-134 422,-165 92,-25 111,-27 318,-27 207,0 226,2 318,27 118,31 299,103 422,165 70,36 107,63 170,126 188,189 403,432 473,533 41,59 98,138 128,175 29,36 99,134 154,216 124,185 198,257 414,407 260,180 375,286 507,465 31,41 79,102 108,135 154,174 302,469 375,745 45,171 107,428 141,590 15,69 44,193 65,275 21,83 46,197 55,255 9,58 32,157 50,220 18,63 49,176 68,250 20,74 61,218 92,320 54,180 122,481 190,845 18,99 38,201 44,227 21,91 31,317 20,438 -12,139 -44,361 -59,413 -16,54 -57,96 -102,104 -29,4 -66,-5 -169,-41 -143,-52 -236,-100 -434,-225 -161,-102 -210,-125 -510,-241 -309,-119 -348,-137 -567,-266 -309,-181 -432,-267 -538,-373 -96,-96 -193,-228 -245,-331 -15,-30 -34,-65 -43,-77 l -14,-23 -55,50 c -189,173 -766,298 -1213,263 -423,-33 -758,-131 -903,-263 l -55,-50 -14,23 c -9,12 -28,47 -43,77 -52,103 -149,235 -245,331 -106,106 -229,192 -538,373 -219,129 -258,147 -567,266 -300,116 -349,139 -510,241 -197,124 -290,173 -430,223 -128,46 -162,52 -201,36 z m 231,-225 c 50,-24 159,-89 244,-145 180,-118 251,-156 421,-220 236,-90 455,-182 536,-224 107,-57 352,-215 484,-312 205,-151 291,-258 431,-537 104,-207 143,-257 199,-257 73,0 102,85 65,190 -8,23 -15,46 -15,51 0,16 152,86 265,122 247,80 475,111 800,111 325,0 552,-31 800,-111 108,-35 265,-107 265,-123 0,-4 -7,-27 -15,-50 -37,-105 -8,-190 65,-190 56,0 95,50 199,257 140,279 226,386 431,537 132,97 377,255 484,312 81,42 300,134 536,224 165,63 250,106 391,200 212,143 396,237 419,214 18,-18 60,-356 60,-484 0,-178 -24,-322 -136,-830 -64,-291 -62,-284 -124,-475 -26,-82 -62,-193 -78,-245 -30,-93 -114,-425 -128,-505 -14,-81 -74,-322 -98,-391 -13,-39 -27,-91 -31,-115 -4,-24 -31,-141 -60,-259 -29,-118 -67,-278 -85,-355 -18,-77 -48,-185 -67,-240 -53,-151 -181,-397 -251,-480 -32,-38 -92,-115 -132,-170 -178,-242 -285,-350 -508,-509 -178,-127 -249,-199 -360,-362 -44,-66 -107,-150 -140,-189 -32,-38 -98,-124 -147,-190 -78,-105 -268,-316 -465,-515 -77,-78 -147,-116 -354,-195 -220,-83 -280,-95 -471,-95 -191,0 -251,12 -471,95 -207,79 -277,117 -354,195 -197,199 -387,410 -465,515 -49,66 -115,152 -147,190 -33,39 -96,123 -140,189 -111,163 -182,235 -360,362 -223,159 -330,267 -508,509 -40,55 -100,132 -132,170 -70,83 -198,329 -251,480 -19,55 -49,163 -67,240 -18,77 -56,237 -85,355 -29,118 -56,235 -60,259 -4,24 -18,76 -31,115 -24,69 -84,310 -98,391 -14,80 -98,412 -128,505 -16,52 -52,163 -78,245 -62,191 -60,184 -124,475 -148,669 -160,791 -111,1129 14,96 28,178 31,183 9,14 49,2 149,-47 z"
       id="path12"
       style="fill:#005100" />
    <path
       inkscape:connector-curvature="0"
       d="m 2451,7594 c -11,-14 -24,-42 -28,-63 -21,-100 6,-717 33,-758 20,-31 50,-29 71,4 16,24 19,62 23,332 l 5,304 49,-73 c 27,-41 76,-119 109,-175 104,-173 191,-268 272,-295 69,-23 114,28 83,94 -9,17 -47,69 -85,116 -39,47 -128,164 -198,260 -189,259 -210,280 -277,280 -28,0 -42,-6 -57,-26 z"
       id="path14"
       style="fill:#005100" />
    <path
       inkscape:connector-curvature="0"
       d="m 7579,7603 c -37,-26 -70,-66 -214,-263 -70,-96 -159,-213 -198,-260 -38,-47 -76,-99 -85,-116 -31,-66 14,-117 83,-94 81,27 168,122 272,295 33,56 82,134 109,175 l 49,73 5,-304 c 4,-270 7,-308 23,-332 21,-33 52,-35 71,-4 14,21 25,144 41,487 8,158 -6,293 -32,329 -25,33 -86,40 -124,14 z"
       id="path16"
       style="fill:#005100" />
    <path
       inkscape:connector-curvature="0"
       d="m 3340,5334 c -30,-8 -64,-22 -75,-30 -11,-8 -41,-28 -67,-44 -47,-31 -58,-48 -108,-172 -22,-54 -23,-61 -11,-128 22,-123 74,-179 316,-342 245,-166 519,-254 719,-233 93,10 207,43 250,73 67,46 86,85 86,178 0,144 -42,229 -184,369 -143,142 -372,272 -561,320 -115,29 -275,33 -365,9 z"
       id="path18"
       style="fill:#005100" />
    <path
       inkscape:connector-curvature="0"
       d="m 6452,5295 c -285,-53 -500,-182 -663,-398 -69,-92 -89,-150 -89,-261 0,-93 19,-132 86,-178 43,-30 157,-63 250,-73 200,-21 474,67 719,233 242,163 294,219 316,342 12,70 12,71 -21,153 -47,114 -54,123 -128,159 -66,33 -67,33 -232,35 -105,1 -191,-3 -238,-12 z"
       id="path20"
       style="fill:#005100" />
    <path
       inkscape:connector-curvature="0"
       d="m 4974,4021 c -114,-18 -183,-61 -204,-127 -32,-95 64,-192 207,-210 41,-5 53,-10 53,-23 0,-10 -18,-105 -39,-212 -22,-107 -43,-220 -46,-252 -8,-66 -30,-93 -102,-128 -40,-19 -43,-19 -111,-3 -85,20 -116,14 -130,-25 -13,-38 9,-83 61,-125 32,-26 49,-31 107,-34 86,-5 123,7 222,74 43,30 82,54 86,54 4,0 32,-19 62,-41 93,-71 149,-92 235,-87 64,3 78,7 112,34 52,42 74,87 61,125 -14,39 -45,45 -130,25 -68,-16 -71,-16 -111,3 -72,35 -94,62 -102,128 -3,32 -24,145 -46,252 -21,107 -39,202 -39,212 0,13 12,18 53,23 106,14 194,75 212,148 17,67 -45,145 -136,172 -63,19 -207,28 -275,17 z"
       id="path22"
       style="fill:#005100" />
    <path
       inkscape:connector-curvature="0"
       d="m 4250,3900 c -11,-11 -20,-29 -20,-39 0,-52 103,-122 256,-177 55,-19 114,-44 132,-55 49,-28 62,-25 62,15 0,49 -37,88 -155,164 -104,68 -194,111 -232,112 -13,0 -32,-9 -43,-20 z"
       id="path24"
       style="fill:#005100" />
    <path
       inkscape:connector-curvature="0"
       d="m 5780,3897 c -74,-31 -249,-146 -283,-186 -18,-22 -27,-44 -27,-67 0,-40 13,-43 62,-15 18,11 77,36 132,55 153,55 256,125 256,177 0,26 -35,59 -62,59 -13,0 -48,-11 -78,-23 z"
       id="path26"
       style="fill:#005100" />
    <path
       inkscape:connector-curvature="0"
       d="m 4130,3551 c -35,-11 -70,-34 -70,-46 0,-14 151,-18 336,-10 150,7 193,16 166,34 -37,23 -371,40 -432,22 z"
       id="path28"
       style="fill:#005100" />
    <path
       inkscape:connector-curvature="0"
       d="m 5678,3547 c -160,-22 -131,-43 76,-52 187,-8 336,-4 336,10 0,6 -15,20 -32,30 -28,17 -54,20 -163,22 -71,1 -169,-4 -217,-10 z"
       id="path30"
       style="fill:#005100" />
    <path
       inkscape:connector-curvature="0"
       d="m 4407,3408 c -109,-58 -212,-144 -234,-196 -30,-72 30,-67 130,11 37,29 113,88 169,131 57,44 103,84 103,90 0,6 -16,12 -35,14 -26,1 -60,-11 -133,-50 z"
       id="path32"
       style="fill:#005100" />
    <path
       inkscape:connector-curvature="0"
       d="m 5574,3448 c -4,-7 2,-18 16,-27 13,-9 64,-47 113,-86 48,-38 116,-91 150,-117 96,-73 153,-76 124,-6 -22,52 -125,139 -235,196 -98,51 -153,64 -168,40 z"
       id="path34"
       style="fill:#005100" />
  </g>
</svg>
