<svg width="500" height="500" xmlns="http://www.w3.org/2000/svg" preserveAspectRatio="xMidYMid meet">

 <g>
  <title>background</title>
  <rect fill="none" id="canvas_background" height="402" width="582" y="-1" x="-1"/>
 </g>
 <g>
  <title>Layer 1</title>
  <g id="svg_1" fill="#000000" transform="translate(0,500) scale(0.10000000149011612,-0.10000000149011612) ">
   <path fill="#005100" id="svg_2" d="m1530,4411c-55,-15 -133,-190 -197,-441c-40,-155 -45,-191 -50,-320c-8,-227 29,-452 87,-532c19,-26 19,-30 6,-56c-29,-57 -58,-140 -108,-317l-51,-180l-3,-198l-3,-197l-82,-123c-93,-139 -133,-220 -178,-360c-54,-171 -62,-320 -24,-472c19,-76 83,-198 145,-274c50,-63 129,-111 180,-111c16,0 43,-7 60,-16c29,-15 31,-15 23,2c-4,11 -28,75 -52,144c-55,152 -82,273 -90,405c-5,85 -3,102 11,114c25,21 44,-2 48,-62c7,-79 63,-343 100,-464c31,-102 35,-111 90,-164c56,-54 62,-58 165,-84c140,-36 180,-40 272,-25c276,44 772,300 1196,619c170,127 426,383 510,508c30,46 55,86 55,90c0,4 40,88 89,188c113,230 150,351 177,585c37,330 35,345 -121,791c-147,422 -199,561 -233,624c-30,55 -65,79 -94,64c-16,-9 -17,-13 -4,-37c55,-107 84,-484 50,-649c-30,-143 -85,-367 -106,-433c-22,-71 -98,-224 -130,-265c-18,-23 -58,-35 -58,-17c0,4 20,48 45,97c64,127 111,264 155,455c66,283 69,337 34,610c-16,125 -28,172 -48,189c-24,20 -284,-97 -478,-215c-259,-157 -400,-273 -509,-421c-38,-51 -76,-93 -84,-93c-27,0 -29,32 -5,77c30,57 211,237 323,321c77,58 87,69 87,97c0,28 -7,36 -57,67c-554,336 -628,375 -846,438c-161,47 -160,49 -72,-82c81,-123 134,-238 226,-498c61,-170 67,-205 36,-205c-14,0 -29,33 -71,155c-86,247 -144,381 -214,489c-124,195 -121,191 -150,190c-15,-1 -38,-4 -52,-8zm354,-907c25,-24 4,-48 -61,-68c-83,-26 -126,-50 -175,-97c-84,-80 -138,-121 -153,-115c-23,9 -18,28 23,83c66,88 173,163 287,199c53,17 61,17 79,-2zm844,-288c100,-51 147,-96 193,-188c42,-83 44,-108 9,-108c-23,0 -54,44 -72,104c-16,52 -69,101 -149,139c-65,30 -96,58 -84,77c10,17 33,11 103,-24zm-1145,-630c17,-25 22,-44 22,-96c-1,-103 -46,-170 -149,-224c-62,-33 -77,-32 -116,1c-32,26 -32,28 -28,93c8,110 86,225 173,254c49,17 70,11 98,-28zm829,-97c27,-36 36,-136 15,-175c-47,-91 -178,-185 -262,-187c-31,-1 -43,5 -67,33c-28,31 -30,37 -25,89c6,70 34,134 83,190c51,59 103,82 178,79c50,-3 62,-7 78,-29zm-1074,-694c28,-8 72,-75 72,-110c0,-35 -21,-73 -62,-112c-72,-68 -161,-60 -192,18c-21,52 -20,74 4,125c21,43 53,71 99,84c26,8 36,7 79,-5z"/>
  </g>
 </g>
</svg>