<svg width="607" height="591" xmlns="http://www.w3.org/2000/svg" preserveAspectRatio="xMidYMid meet">
 <metadata>Created by potrace 1.15, written by Peter Selinger 2001-2017</metadata>

 <g>
  <title>background</title>
  <rect fill="none" id="canvas_background" height="402" width="582" y="-1" x="-1"/>
 </g>
 <g>
  <title>Layer 1</title>
  <g id="svg_1" fill="#000000" transform="translate(0,591) scale(0.10000000149011612,-0.10000000149011612) ">
   <path fill="#169e16" id="svg_2" d="m3429,5296c-2,-2 -37,-7 -77,-10c-97,-9 -339,-52 -393,-70c-24,-8 -71,-22 -104,-31c-56,-15 -205,-66 -250,-85c-11,-4 -40,-16 -65,-25c-124,-46 -421,-196 -428,-216c-2,-5 -9,-9 -15,-9c-23,0 -305,-199 -427,-302c-181,-153 -370,-345 -480,-488c-19,-25 -43,-54 -52,-65c-72,-87 -230,-341 -298,-481c-188,-388 -281,-751 -282,-1104c-1,-155 12,-310 32,-390c5,-19 12,-51 15,-70c8,-46 57,-199 89,-275c28,-68 114,-229 148,-277c177,-250 417,-451 692,-578c91,-42 241,-95 299,-105c32,-6 37,-5 37,11c0,15 -21,26 -98,53c-194,67 -363,162 -522,290c-115,93 -128,104 -112,96c6,-3 12,-1 12,4c0,6 -6,11 -14,11c-25,0 -152,148 -221,258c-5,9 -15,22 -21,28c-29,33 -161,326 -179,399c-62,251 -70,318 -69,550c2,450 138,874 420,1311c163,252 441,565 649,729c28,22 52,42 55,45c7,8 102,81 130,100c12,8 28,21 36,28c7,6 15,12 18,12c2,0 33,20 68,45c35,24 80,52 101,61c20,9 37,19 37,23c0,10 60,44 60,34c0,-4 4,-3 8,2c8,12 241,128 347,174c70,29 175,66 333,116c75,23 218,55 315,69c20,3 54,9 75,12c20,3 48,8 62,10c14,2 117,6 230,10c179,6 224,4 355,-15c246,-35 416,-86 603,-180c229,-115 415,-270 566,-471c22,-30 44,-56 49,-58c4,-2 7,-8 7,-13c0,-5 15,-32 34,-61c61,-97 163,-339 181,-429c2,-9 12,-59 23,-110c11,-52 23,-130 27,-174c7,-92 7,-314 0,-365c-2,-19 -7,-55 -10,-80c-57,-433 -246,-874 -531,-1240c-28,-36 -55,-72 -60,-81c-27,-48 -293,-324 -409,-424c-38,-33 -75,-64 -81,-70c-6,-5 -26,-21 -44,-35c-19,-14 -42,-33 -52,-43c-10,-9 -22,-17 -27,-17c-5,0 -11,-3 -13,-8c-4,-10 -157,-112 -168,-112c-6,0 -10,-4 -10,-9c0,-5 -8,-11 -17,-15c-10,-3 -31,-15 -48,-26c-16,-11 -40,-24 -52,-29c-11,-5 -24,-15 -28,-21c-3,-5 -10,-8 -15,-5c-5,3 -14,-1 -22,-8c-7,-7 -41,-26 -75,-42c-35,-16 -63,-33 -63,-37c0,-4 -8,-8 -18,-8c-26,0 -54,-34 -54,-66c-1,-30 25,-54 56,-54c26,0 195,84 256,126c25,17 48,31 51,30c6,-1 116,72 136,91c7,6 29,21 50,34c21,13 42,29 46,36c4,7 13,13 20,13c7,0 26,13 43,28c17,15 46,38 64,52c36,27 81,65 144,120c78,68 292,288 343,351c101,124 143,179 143,185c0,3 15,24 34,47c18,23 41,56 50,72c9,17 22,39 29,49c233,368 375,754 421,1148c12,101 13,359 3,443c-3,17 -7,55 -11,86c-11,94 -53,267 -86,354c-30,79 -77,181 -85,187c-5,4 -6,8 -2,8c4,0 -5,19 -21,43c-16,23 -39,60 -51,82c-22,41 -50,82 -99,145c-34,45 -226,236 -275,275c-174,137 -430,262 -677,329c-187,50 -319,67 -561,72c-124,3 -227,3 -230,0z"/>
   <path fill="#169e16" id="svg_3" d="m3619,4893c-20,-5 -29,-68 -29,-205c0,-73 -3,-97 -12,-95c-7,1 -17,25 -23,52c-9,44 -13,50 -37,53c-34,4 -48,-25 -48,-99c0,-42 -3,-49 -19,-49c-11,0 -26,-3 -35,-6c-13,-5 -16,1 -16,28c0,52 -19,98 -40,98c-37,0 -43,-24 -38,-164c5,-147 13,-169 57,-164c24,3 26,7 29,58c2,43 8,59 25,72c31,25 33,23 46,-26c18,-72 81,-66 81,8c0,20 8,40 19,50c18,17 20,16 26,-5c12,-36 31,-50 96,-70c83,-26 102,-24 143,15c45,42 48,76 7,76c-58,0 -64,8 -31,48c17,20 30,46 30,59c0,46 -50,66 -105,41c-14,-6 -27,-9 -30,-7c-2,3 -8,46 -13,97c-9,91 -30,143 -55,141c-6,-1 -19,-3 -28,-6z"/>
   <path fill="#169e16" id="svg_4" d="m4018,4863c-22,-5 -50,-68 -56,-125c-4,-43 -2,-49 19,-57c13,-5 20,-10 15,-10c-13,-1 25,-41 39,-41c14,0 55,-37 55,-50c0,-5 -13,-25 -30,-43c-38,-44 -38,-53 3,-66c49,-16 78,-10 114,27c28,28 33,40 33,81c0,41 -5,53 -32,80c-17,17 -39,31 -47,31c-13,1 -13,2 2,11c9,5 17,21 17,33c0,28 -35,41 -81,31c-28,-6 -40,7 -19,20c14,9 12,72 -2,77c-7,2 -20,3 -30,1z"/>
   <path fill="#169e16" id="svg_5" d="m3019,4699c-11,-22 -6,-150 12,-264c11,-73 11,-104 1,-89c-13,20 -50,34 -91,34c-34,0 -44,-5 -68,-36c-21,-29 -28,-50 -31,-101c-4,-59 -2,-67 23,-93c47,-49 130,-43 176,14c9,11 20,42 23,68c6,43 8,47 25,36c68,-42 69,58 6,397c-10,52 -55,72 -76,34z"/>
   <path fill="#169e16" id="svg_6" d="m2565,4573c-32,-8 -102,-61 -129,-96c-38,-50 -76,-132 -76,-163c1,-80 31,-99 49,-31c13,50 59,104 126,146c58,37 88,39 107,9c21,-34 22,-121 2,-176c-17,-45 -60,-113 -76,-120c-5,-2 -6,-8 -2,-13c3,-5 1,-9 -5,-9c-17,0 -53,-88 -45,-112c9,-31 22,-38 73,-38c38,0 49,5 76,35c75,82 98,119 126,211c11,37 14,176 4,224c-20,100 -123,160 -230,133z"/>
   <path fill="#169e16" id="svg_7" d="m3178,4518c-18,-33 -19,-202 -2,-238c23,-45 106,-50 120,-7c7,23 7,114 0,126c-3,4 -7,29 -11,56c-3,27 -13,57 -22,67c-23,26 -69,23 -85,-4z"/>
   <path fill="#169e16" id="svg_8" d="m1772,4441c-29,-10 -65,-29 -80,-42c-120,-108 -178,-202 -169,-272c3,-23 12,-46 20,-52c11,-8 14,-37 13,-130c-1,-100 2,-126 17,-148c20,-31 63,-37 71,-9c3,10 4,7 3,-8c-2,-38 10,-50 55,-50c51,0 88,21 158,89c55,54 85,96 115,159c20,43 26,40 20,-8c-6,-50 6,-76 40,-82c33,-7 42,10 60,112c8,44 23,99 34,123c22,48 83,114 147,158c64,44 59,59 -21,59c-80,0 -115,-16 -172,-77c-24,-25 -43,-39 -44,-32c-1,19 -5,36 -19,88c-16,62 -88,131 -134,131c-19,0 -40,2 -48,4c-7,3 -37,-4 -66,-13zm99,-132c40,-47 34,-176 -13,-241c-11,-16 -17,-28 -14,-28c7,0 -13,-25 -79,-98c-87,-97 -92,-102 -98,-102c-3,0 -6,81 -6,180c0,100 -3,184 -5,189c-3,4 4,14 16,22c11,8 26,19 32,24c29,26 110,68 145,74c2,1 12,-8 22,-20z"/>
   <path fill="#169e16" id="svg_9" d="m2418,4238c-19,-33 -18,-348 1,-371c20,-24 40,-21 51,9c11,29 12,279 2,339c-9,47 -34,58 -54,23z"/>
   <path fill="#169e16" id="svg_10" d="m3200,4024c-81,-50 -129,-111 -164,-209c-29,-83 -66,-265 -66,-325c0,-23 -13,-75 -31,-118c-35,-88 -69,-246 -70,-330c0,-31 -3,-50 -6,-42c-3,8 -10,26 -16,40c-6,14 -11,27 -11,30c-1,3 -5,11 -10,19c-7,11 -6,12 5,6c11,-7 12,-6 3,6c-6,8 -28,47 -49,87c-20,39 -41,72 -47,72c-5,0 -7,4 -3,9c3,5 -3,16 -13,23c-9,7 -25,25 -35,40c-9,16 -21,27 -25,25c-7,-2 -25,11 -64,48c-13,12 -18,14 -14,5c5,-9 2,-8 -7,3c-8,9 -22,17 -31,17c-9,0 -19,6 -22,14c-4,11 -29,21 -69,26c-2,1 -19,7 -37,14c-18,7 -40,12 -48,11c-8,0 -18,4 -22,10c-9,12 -259,13 -333,1c-54,-8 -85,-22 -85,-36c0,-6 -11,-10 -24,-10c-13,0 -29,-7 -36,-15c-7,-8 -19,-15 -27,-15c-8,0 -25,-12 -38,-26c-14,-15 -25,-24 -25,-21c0,10 -37,-21 -101,-83c-46,-44 -65,-73 -98,-149c-23,-52 -41,-100 -41,-107c0,-6 -7,-17 -15,-24c-8,-7 -15,-21 -15,-32c0,-10 -7,-35 -16,-56c-9,-20 -17,-47 -18,-60c-1,-13 -7,-27 -14,-31c-14,-8 -49,-65 -58,-93c-4,-10 -9,-18 -13,-18c-4,0 -13,-17 -20,-37c-8,-20 -23,-46 -35,-58c-31,-31 -81,-96 -81,-104c0,-4 -24,-31 -52,-59c-29,-29 -65,-71 -80,-95c-16,-23 -40,-54 -56,-69c-15,-15 -27,-30 -27,-33c0,-3 -9,-18 -20,-33c-27,-38 -77,-180 -85,-244c-9,-75 25,-278 47,-278c4,0 8,-6 8,-14c0,-8 14,-24 31,-37c17,-13 39,-32 47,-41c9,-10 21,-18 26,-18c5,0 33,-16 61,-36c49,-33 57,-36 138,-37c68,-2 90,1 103,14c24,25 3,56 -49,70c-79,21 -132,42 -144,58c-7,9 -13,13 -13,9c0,-5 -8,0 -18,10c-10,9 -37,32 -60,51c-23,19 -39,37 -37,42c3,4 1,9 -4,11c-6,1 -12,17 -16,35c-3,18 -9,42 -13,55c-25,70 -7,197 34,241c14,15 22,27 19,27c-4,0 7,17 24,39c17,21 28,41 26,45c-3,3 -2,4 1,1c8,-5 34,20 34,33c0,6 7,12 15,16c8,3 15,13 15,21c0,9 4,13 10,10c5,-3 20,11 34,32c13,21 50,65 83,98c32,33 58,63 58,67c0,4 10,15 23,23c12,9 20,21 17,26c-4,5 -2,9 4,9c6,0 18,15 27,33c9,17 20,34 24,37c4,3 15,20 24,38c16,31 35,58 64,88c7,8 11,14 8,14c-3,0 8,25 24,55c16,30 27,55 25,55c-3,0 0,10 7,23c7,12 13,29 14,37c1,8 9,32 18,53c9,20 13,37 9,37c-5,0 -3,4 4,8c6,4 13,14 15,22c2,8 11,23 21,34c9,11 17,26 17,33c0,7 4,13 9,13c4,0 22,14 39,30c18,17 36,30 42,30c5,0 10,4 10,9c0,5 9,13 20,16c11,4 18,11 15,16c-4,5 0,9 8,9c8,0 17,7 21,15c3,8 40,31 83,52c71,35 86,38 169,40c56,1 110,-4 138,-12c26,-8 51,-14 54,-13c4,1 16,-2 27,-7c59,-23 75,-31 75,-38c0,-5 4,-6 8,-3c5,3 15,-4 22,-15c8,-10 18,-19 23,-19c29,0 167,-189 167,-228c0,-7 -20,-9 -55,-5l-55,6l0,-33c0,-18 3,-30 6,-27c4,4 19,-2 34,-13c16,-11 31,-20 35,-20c15,0 79,-51 81,-65c4,-30 14,-46 23,-41c5,3 11,-1 15,-9c3,-8 14,-15 24,-15c11,0 35,-15 54,-32c19,-18 47,-44 64,-58c26,-22 57,-76 86,-150c5,-14 16,-59 22,-101c12,-68 11,-84 -6,-150c-11,-41 -24,-75 -29,-77c-5,-2 -9,-12 -9,-23c0,-11 -7,-22 -15,-25c-8,-3 -24,-28 -36,-55c-13,-27 -27,-49 -32,-49c-5,0 -17,-9 -26,-19c-29,-33 -116,-79 -144,-76c-15,2 -29,0 -31,-4c-3,-4 -22,-5 -43,-3c-21,3 -60,5 -88,6c-35,1 -54,6 -63,19c-7,9 -17,15 -22,12c-5,-3 -18,8 -30,25c-12,16 -18,30 -14,30c3,0 1,7 -6,15c-7,8 -10,15 -7,15c9,0 -59,154 -87,194c-14,21 -26,46 -26,55c0,25 -66,95 -81,86c-8,-5 -10,-4 -5,3c10,17 -46,15 -69,-2c-14,-10 -19,-27 -19,-67c0,-30 3,-66 8,-81c7,-26 6,-28 -18,-28c-14,0 -26,-5 -26,-11c0,-5 -4,-8 -9,-4c-5,3 -12,1 -15,-4c-3,-4 -19,-11 -36,-15c-18,-3 -29,-10 -25,-16c3,-5 -1,-10 -9,-10c-9,0 -44,-27 -78,-61c-35,-33 -56,-58 -48,-54c8,4 -4,-10 -26,-31c-34,-32 -117,-146 -114,-156c4,-11 -25,-64 -40,-75c-11,-8 -20,-20 -20,-26c0,-7 -30,-40 -67,-75c-56,-53 -65,-66 -56,-80c23,-37 90,-11 168,66c28,28 55,56 60,64c23,31 65,98 65,104c0,4 11,17 25,30c14,13 25,27 25,32c0,5 11,15 25,22c14,7 23,15 21,18c-6,6 75,82 87,82c5,0 22,-11 39,-25c16,-14 27,-25 23,-25c-3,0 6,-11 20,-25c14,-14 25,-33 25,-41c0,-8 6,-17 14,-20c7,-3 12,-15 11,-27c-1,-12 3,-44 10,-72c8,-27 16,-86 20,-130c7,-93 34,-317 37,-321c4,-3 49,-7 66,-5c6,1 12,13 12,27c0,14 4,23 10,19c6,-3 10,-1 10,4c0,6 -5,11 -11,11c-6,0 -8,9 -3,23c4,12 8,45 8,72c1,28 4,55 8,61c9,14 8,124 -1,124c-4,0 -7,17 -7,38c-1,45 -10,82 -24,96c-5,5 -10,23 -10,38c0,33 -35,108 -51,108c-6,0 -8,4 -5,9c3,5 -17,32 -44,61l-51,53l26,17c14,9 22,20 18,24c-5,4 3,6 17,4c14,-1 24,-7 23,-13c-1,-5 2,-14 6,-20c5,-5 11,-22 15,-37c3,-16 11,-28 16,-28c5,0 7,-6 4,-14c-3,-7 1,-20 9,-28c8,-8 18,-25 22,-38c8,-27 97,-119 136,-141c27,-16 314,-25 333,-11c6,5 22,9 35,10c22,1 91,41 91,53c0,11 37,49 48,49c6,0 12,5 14,11c4,12 64,-37 62,-49c-3,-14 16,-52 26,-52c5,0 10,-6 10,-13c0,-8 9,-22 20,-32c11,-10 17,-21 15,-25c-3,-4 2,-13 11,-20c22,-19 84,11 84,41c0,32 -22,102 -37,117c-7,7 -13,20 -13,29c0,8 -14,41 -31,73c-19,36 -28,64 -23,72c4,7 9,21 9,31c1,10 8,22 15,27c7,4 9,13 6,19c-4,6 -2,11 3,11c6,0 11,7 11,15c0,13 12,19 32,16c11,-1 48,51 42,60c-3,5 -1,9 3,9c11,0 15,30 15,110c0,83 -7,111 -43,182c-5,10 -9,24 -9,32c0,7 -7,19 -15,26c-19,15 -96,175 -97,200c0,3 -4,10 -9,16c-5,6 -12,57 -15,112c-6,102 2,174 33,295c22,90 25,100 27,127c1,14 5,30 8,36c4,6 9,28 12,50c3,21 12,66 21,99c14,56 22,89 28,125c2,8 9,25 16,38c6,12 9,27 6,32c-3,6 -1,10 4,10c6,0 11,8 11,19c0,17 70,101 70,84c0,-4 5,-1 10,7c9,13 12,12 22,-5c7,-11 13,-22 13,-25c1,-3 9,-32 20,-65c10,-33 19,-63 21,-67c1,-5 2,-9 3,-10c2,-2 4,-14 7,-28c2,-14 9,-36 14,-50c6,-14 12,-36 15,-49c10,-51 37,-117 59,-145c19,-23 29,-27 50,-22c23,6 26,11 26,51c0,39 3,46 30,60c26,14 89,27 128,28c6,0 12,4 12,8c0,5 7,6 16,2c9,-3 20,0 25,8c5,8 9,10 9,4c0,-6 22,-9 52,-7c29,2 65,4 81,5c15,1 27,5 27,9c0,4 6,8 13,8c7,0 30,16 52,36c22,19 56,46 76,59c20,13 51,37 70,55c37,34 92,62 156,79c23,6 45,16 48,21c4,6 11,8 16,5c5,-4 9,-1 9,6c0,7 3,10 6,6c3,-3 -4,-21 -17,-39c-13,-18 -24,-36 -24,-40c0,-4 -8,-16 -17,-28c-10,-11 -15,-20 -12,-20c3,0 -2,-7 -10,-16c-9,-8 -16,-22 -16,-30c0,-8 -4,-22 -9,-32c-47,-87 -56,-119 -56,-197c0,-44 4,-89 9,-100c5,-11 10,-31 11,-45c8,-64 16,-94 26,-101c7,-4 9,-14 6,-23c-4,-9 -2,-29 4,-44c6,-15 12,-34 14,-42c2,-8 14,-40 28,-70c13,-30 22,-61 20,-67c-3,-7 3,-20 11,-29c9,-8 16,-24 16,-34c0,-10 5,-22 10,-25c6,-3 10,-19 10,-34c0,-15 3,-31 7,-34c3,-4 8,-22 10,-39c2,-18 8,-34 13,-36c6,-2 10,-25 10,-51c0,-36 -6,-54 -22,-73c-13,-13 -40,-46 -61,-71c-38,-45 -166,-127 -200,-127c-9,0 -28,-5 -44,-12c-15,-6 -32,-12 -38,-13c-5,-2 -39,-13 -74,-25c-72,-24 -172,-32 -178,-13c-2,6 4,14 14,16c10,3 -6,4 -34,2c-32,-1 -53,2 -53,8c0,6 -3,7 -7,4c-3,-4 -16,-1 -28,7c-29,19 -46,6 -43,-32c4,-49 36,-81 88,-88c25,-4 64,-9 87,-13l41,-6l-19,-40c-37,-73 -25,-153 21,-149c8,0 22,2 31,2c15,2 67,82 53,82c-3,0 -2,6 4,13c5,6 13,30 16,52l7,40l61,2c33,2 79,8 102,15c22,6 43,12 46,13c10,2 85,39 90,44c3,4 12,11 21,16c112,68 199,144 199,173c0,10 5,23 11,29c6,6 17,39 24,73c12,58 11,70 -16,188c-16,70 -34,129 -39,130c-6,2 -10,15 -10,28c0,13 -4,24 -8,24c-7,0 -11,16 -14,58c-1,6 -6,12 -11,12c-6,0 -8,3 -4,6c3,4 -10,37 -29,75c-19,38 -29,69 -24,69c7,0 8,5 3,13c-4,6 -9,23 -11,37c-2,13 -7,27 -11,30c-3,3 -14,23 -22,45c-28,74 -4,203 64,345c17,36 32,67 32,70c2,10 34,67 69,120c62,94 47,114 -82,112c-48,0 -96,-2 -108,-4c-38,-7 -268,-127 -304,-159c-41,-37 -115,-89 -126,-89c-4,0 -17,-8 -28,-19c-15,-13 -43,-20 -91,-25c-104,-8 -165,-18 -165,-25c0,-4 -9,-7 -20,-7c-15,0 -22,9 -26,36c-4,19 -13,44 -20,55c-10,17 -26,71 -28,97c-1,3 -4,10 -8,14c-5,4 -8,15 -8,24c0,10 -9,29 -21,44c-11,14 -17,26 -14,26c4,0 2,6 -4,13c-6,8 -8,17 -4,20c3,4 1,7 -6,7c-7,0 -10,4 -7,8c3,5 -8,19 -24,30c-43,32 -93,28 -160,-14z"/>
   <path fill="#169e16" id="svg_11" d="m4023,3250c-21,-9 -26,-18 -38,-77c-9,-43 3,-93 21,-93c9,0 13,-4 9,-9c-5,-10 27,-24 55,-25c8,0 30,8 48,19c27,16 32,25 32,55c0,20 -3,40 -7,43c-3,4 -8,19 -9,33c-6,54 -53,77 -111,54z"/>
   <path fill="#169e16" id="svg_12" d="m3574,3198c-34,-16 -66,-82 -63,-131c4,-61 18,-85 56,-98c61,-20 121,19 144,93c15,46 0,87 -43,123c-31,26 -59,30 -94,13z"/>
   <path fill="#169e16" id="svg_13" d="m4101,2846c-24,-25 -29,-87 -8,-104c6,-5 27,-13 45,-17c37,-8 82,15 82,40c0,8 4,15 9,15c17,0 2,44 -21,62c-13,9 -24,15 -26,13c-2,-2 -16,0 -32,5c-23,7 -32,4 -49,-14z"/>
   <path fill="#169e16" id="svg_14" d="m1805,2811c-11,-5 -23,-7 -27,-4c-12,6 -44,-69 -47,-109c-2,-35 15,-85 26,-75c3,3 21,0 41,-7c21,-7 59,-13 85,-13c41,0 50,3 57,22c12,32 12,165 -1,165c-6,0 -7,5 -3,12c4,6 3,8 -4,4c-6,-3 -13,-2 -17,4c-7,12 -81,12 -110,1z"/>
   <path fill="#169e16" id="svg_15" d="m3283,1748c-6,-7 -14,-35 -17,-61c-8,-54 -9,-261 -2,-292c37,-154 40,-160 76,-171c59,-20 63,-10 58,147l-3,136l46,22c26,11 52,28 59,36c11,14 14,13 26,-4c8,-10 36,-24 64,-31c27,-7 52,-15 55,-19c4,-8 -39,-51 -51,-51c-17,0 -84,-64 -84,-81c0,-30 44,-53 89,-45c49,8 82,25 130,68c31,27 40,44 46,83c4,33 3,51 -4,53c-6,2 -9,7 -6,12c7,12 -49,50 -90,61c-19,6 -35,13 -35,17c1,15 94,75 117,75c14,0 27,6 30,15c16,41 -90,56 -162,23c-41,-19 -105,-81 -105,-102c0,-7 -12,-9 -32,-6c-18,2 -50,-2 -70,-9c-21,-7 -38,-12 -39,-11c0,1 -2,22 -5,47c-8,65 -25,94 -55,98c-14,2 -30,-3 -36,-10z"/>
   <path fill="#169e16" id="svg_16" d="m2776,1728c-14,-24 -16,-31 -47,-203c-42,-235 -101,-461 -118,-451c-15,9 -53,94 -90,201c-31,89 -43,111 -60,113c-43,7 -48,-59 -14,-178c8,-30 17,-63 19,-74c7,-37 69,-149 91,-163c12,-8 39,-17 60,-20c32,-4 43,-1 67,24c27,26 76,119 76,142c0,19 18,12 25,-9c14,-44 139,-72 194,-44c14,7 28,11 33,8c4,-3 8,0 8,6c0,6 5,8 10,5c6,-3 10,-1 10,5c0,6 5,8 10,5c6,-3 10,-1 10,4c0,6 5,11 10,11c17,0 114,75 144,111c26,31 27,34 10,46c-24,17 -116,17 -159,-1c-19,-8 -35,-13 -35,-11c0,2 -17,-5 -37,-15c-40,-19 -63,-17 -28,3c27,15 85,72 85,84c0,5 9,19 20,31c43,46 55,136 22,165c-20,18 -77,22 -114,8c-32,-12 -101,-79 -128,-124c-12,-21 -24,-37 -25,-35c-2,2 3,32 10,68c7,36 17,93 21,128c5,47 10,62 23,63c11,0 12,2 3,6c-10,4 -8,11 9,29c12,13 19,24 14,24c-4,0 -14,-8 -21,-17c-12,-16 -13,-14 -14,19c0,26 -6,40 -19,48c-31,16 -59,12 -75,-12z"/>
  </g>
 </g>
</svg>