<?xml version="1.0" encoding="UTF-8" standalone="no"?>
<svg
   xmlns:dc="http://purl.org/dc/elements/1.1/"
   xmlns:cc="http://creativecommons.org/ns#"
   xmlns:rdf="http://www.w3.org/1999/02/22-rdf-syntax-ns#"
   xmlns:svg="http://www.w3.org/2000/svg"
   xmlns="http://www.w3.org/2000/svg"
   xmlns:sodipodi="http://sodipodi.sourceforge.net/DTD/sodipodi-0.dtd"
   xmlns:inkscape="http://www.inkscape.org/namespaces/inkscape"
   version="1.0"
   width="400.000000pt"
   height="400.000000pt"
   viewBox="0 0 400.000000 400.000000"
   preserveAspectRatio="xMidYMid meet"
   id="svg18"
   sodipodi:docname="ownericon2.svg"
   inkscape:version="1.0beta1 (32d4812, 2019-09-19)">
  <defs
     id="defs22" />
  <sodipodi:namedview
     pagecolor="#ffffff"
     bordercolor="#666666"
     inkscape:document-rotation="0"
     borderopacity="1"
     objecttolerance="10"
     gridtolerance="10"
     guidetolerance="10"
     inkscape:pageopacity="0"
     inkscape:pageshadow="2"
     inkscape:window-width="1600"
     inkscape:window-height="1155"
     id="namedview20"
     showgrid="false"
     inkscape:zoom="0.35"
     inkscape:cx="400"
     inkscape:cy="560"
     inkscape:window-x="0"
     inkscape:window-y="23"
     inkscape:window-maximized="0"
     inkscape:current-layer="svg18" />
  <metadata
     id="metadata10">
Created by potrace 1.15, written by Peter Selinger 2001-2017
<rdf:RDF>
  <cc:Work
     rdf:about="">
    <dc:format>image/svg+xml</dc:format>
    <dc:type
       rdf:resource="http://purl.org/dc/dcmitype/StillImage" />
  </cc:Work>
</rdf:RDF>
</metadata>
  <g
     transform="matrix(0.11840445,0,0,-0.1,-37.169848,390.93536)"
     fill="#000000"
     stroke="none"
     id="g16"
     style="fill:#005100;fill-opacity:1">
    <path
       inkscape:connector-curvature="0"
       d="m 1736,3274 c -118,-29 -207,-92 -314,-223 -129,-159 -187,-332 -186,-561 0,-145 14,-220 61,-344 29,-76 111,-205 145,-229 13,-9 39,-30 58,-47 41,-38 74,-56 148,-81 71,-25 234,-26 313,-3 178,52 329,204 409,411 42,110 60,215 60,360 0,262 -72,449 -234,601 -120,113 -292,157 -460,116 z m 274,-109 c 135,-68 203,-142 263,-285 89,-211 87,-405 -6,-630 -62,-152 -170,-275 -296,-338 -71,-35 -80,-37 -170,-37 -134,1 -191,24 -286,119 -86,86 -142,189 -175,321 -31,125 -25,300 15,425 76,238 196,376 385,441 82,28 197,22 270,-16 z"
       id="path12"
       style="fill:#005100;fill-opacity:1" />
    <path
       inkscape:connector-curvature="0"
       d="m 1741,1684 c -62,-16 -178,-73 -231,-112 -61,-45 -166,-159 -216,-234 -119,-181 -190,-395 -215,-654 -13,-128 -10,-158 18,-152 15,3 18,15 20,64 2,82 28,229 58,334 107,375 333,631 612,694 95,21 163,20 259,-4 239,-61 485,-275 632,-550 56,-102 118,-265 143,-374 43,-182 36,-166 73,-166 19,0 36,6 39,13 13,33 -61,288 -125,436 -48,108 -142,269 -209,356 -139,180 -316,304 -500,349 -83,20 -282,21 -358,0 z"
       id="path14"
       style="fill:#005100;fill-opacity:1" />
  </g>
</svg>
