<svg width="500" height="500" xmlns="http://www.w3.org/2000/svg" preserveAspectRatio="xMidYMid meet">
 <!-- Created with Method Draw - http://github.com/duopixel/Method-Draw/ -->

 <g>
  <title>background</title>
  <rect fill="#fff" id="canvas_background" height="402" width="582" y="-1" x="-1"/>
 </g>
 <g>
  <title>Layer 1</title>
  <g id="svg_7">
   <g id="svg_4" fill="#000000" transform="translate(0,500) scale(0.10000000149011612,-0.10000000149011612) ">
    <path fill="#005100" id="svg_5" d="m2354.821716,4775.099213c-30,-8 -99,-31 -152,-53c-328,-132 -553,-398 -634,-748c-25,-108 -26,-329 -1,-434c88,-370 336,-629 697,-727c103,-27 340,-25 445,5c454,130 754,530 755,1005c1,450 -269,819 -686,938c-99,28 -336,36 -424,14z"/>
    <path fill="#005100" id="svg_6" d="m2299.821716,2730.099213c-266,-49 -484,-168 -696,-380c-327,-326 -519,-805 -519,-1291c0,-129 3,-158 15,-163c8,-3 544,-8 1192,-11c648,-3 1242,-8 1319,-10c129,-5 142,-4 149,12c13,35 18,358 6,475c-42,434 -205,788 -485,1056c-177,170 -376,272 -610,313c-133,23 -240,23 -371,-1z"/>
   </g>
  </g>
 </g>
</svg>