<svg width="500" height="500" xmlns="http://www.w3.org/2000/svg" preserveAspectRatio="xMidYMid meet">
 <!-- Created with Method Draw - http://github.com/duopixel/Method-Draw/ -->

 <g>
  <title>background</title>
  <rect x="-1" y="-1" width="502" height="502" id="canvas_background" fill="none"/>
 </g>
 <g>
  <title>Layer 1</title>
  <g id="svg_7">
   <g transform="translate(0,500) scale(0.10000000149011612,-0.10000000149011612) " fill="#000000" id="svg_4">
    <path d="m2203.369453,4753.266598c-51,-33 -68,-69 -68,-149c0,-37 6,-50 34,-78c29,-29 41,-34 80,-34c58,0 95,18 134,66c29,35 34,37 102,42c102,7 270,-15 374,-49c239,-79 390,-241 458,-490c20,-73 23,-107 22,-254c0,-150 -3,-184 -28,-290c-69,-294 -182,-542 -389,-855c-189,-285 -453,-573 -718,-784c-41,-33 -87,-72 -104,-87c-51,-45 -68,-43 -143,14c-311,236 -599,541 -809,857c-207,313 -320,561 -389,855c-25,106 -28,140 -28,290c-1,147 2,181 22,254c68,249 219,411 458,490c94,31 265,55 348,49c46,-3 50,-5 58,-35c24,-95 160,-113 234,-31c65,70 71,160 15,210c-45,40 -119,40 -183,-1c-25,-16 -49,-38 -52,-49c-6,-18 -19,-20 -149,-25c-260,-10 -445,-80 -597,-227c-115,-111 -190,-251 -227,-420c-24,-114 -24,-346 1,-485c71,-395 300,-851 622,-1240c112,-135 342,-371 502,-514c144,-129 155,-158 196,-551c34,-322 63,-474 119,-612c108,-267 282,-402 517,-403c199,0 395,98 612,303c273,260 517,655 692,1123l48,127l76,4c131,8 230,75 289,196c24,49 28,68 27,142c0,97 -21,154 -80,214c-63,65 -106,81 -214,81c-84,0 -101,-3 -146,-27c-86,-45 -139,-108 -170,-202c-25,-74 -26,-86 -17,-142c14,-80 38,-129 87,-178l40,-40l-38,-111c-144,-416 -394,-834 -651,-1090c-314,-312 -619,-382 -826,-188c-170,158 -262,483 -244,858c14,296 52,382 243,548c406,354 758,829 936,1263c105,257 149,460 150,689c1,290 -73,490 -244,655c-155,149 -338,218 -607,227l-152,6l-6,28c-18,80 -130,105 -217,50z" id="svg_5" fill="#005100"/>
    <path d="m2002.369453,3952.266598c-27,-5 -66,-20 -86,-33l-37,-25l-2,-177c0,-98 -3,-179 -6,-182c-2,-3 -73,-8 -158,-11l-153,-7l-19,-40c-23,-47 -27,-149 -8,-214l13,-44l170,5l169,4l0,-163l0,-164l55,-25c61,-28 104,-27 232,5l67,17l0,171l1,171l55,6c30,3 105,8 167,12l112,7l15,39c21,52 20,161 -1,222l-18,49l-95,-7c-52,-4 -127,-9 -166,-13l-71,-6l-6,99c-4,55 -7,138 -7,185l0,87l-49,21c-52,22 -92,24 -174,11z" id="svg_6" fill="#005100"/>
   </g>
  </g>
 </g>
</svg>
