<?xml version="1.0" encoding="UTF-8" standalone="no"?>
<svg
   xmlns:dc="http://purl.org/dc/elements/1.1/"
   xmlns:cc="http://creativecommons.org/ns#"
   xmlns:rdf="http://www.w3.org/1999/02/22-rdf-syntax-ns#"
   xmlns:svg="http://www.w3.org/2000/svg"
   xmlns="http://www.w3.org/2000/svg"
   xmlns:sodipodi="http://sodipodi.sourceforge.net/DTD/sodipodi-0.dtd"
   xmlns:inkscape="http://www.inkscape.org/namespaces/inkscape"
   inkscape:version="1.0beta1 (32d4812, 2019-09-19)"
   sodipodi:docname="vetslogo2.svg"
   id="svg841"
   preserveAspectRatio="xMidYMid meet"
   viewBox="0 0 799.000000 799.000000"
   height="799.000000pt"
   width="799.000000pt"
   version="1.0">
  <defs
     id="defs845" />
  <sodipodi:namedview
     inkscape:current-layer="svg841"
     inkscape:window-maximized="0"
     inkscape:window-y="23"
     inkscape:window-x="0"
     inkscape:cy="368.60372"
     inkscape:cx="616.66517"
     inkscape:zoom="2.5255826"
     showgrid="false"
     id="namedview843"
     inkscape:window-height="1155"
     inkscape:window-width="1600"
     inkscape:pageshadow="2"
     inkscape:pageopacity="0"
     guidetolerance="10"
     gridtolerance="10"
     objecttolerance="10"
     borderopacity="1"
     inkscape:document-rotation="0"
     bordercolor="#666666"
     pagecolor="#ffffff" />
  <metadata
     id="metadata833">
Created by potrace 1.15, written by Peter Selinger 2001-2017
<rdf:RDF>
  <cc:Work
     rdf:about="">
    <dc:format>image/svg+xml</dc:format>
    <dc:type
       rdf:resource="http://purl.org/dc/dcmitype/StillImage" />
  </cc:Work>
</rdf:RDF>
</metadata>
  <g
     style="fill:#005100;fill-opacity:1"
     id="g839"
     stroke="none"
     fill="#000000"
     transform="matrix(0.1,0,0,-0.1,7.0304881,810.94508)">
    <path
       style="fill:#005100;fill-opacity:1"
       inkscape:connector-curvature="0"
       id="path835"
       d="m 2850,7020 c -106,-13 -159,-38 -236,-112 l -41,-39 -88,11 c -100,12 -361,15 -451,5 -264,-30 -468,-104 -641,-232 -149,-110 -248,-234 -331,-413 -27,-59 -56,-155 -84,-280 -14,-61 -14,-380 0,-455 55,-295 114,-470 248,-737 60,-120 85,-162 202,-343 211,-325 595,-725 947,-986 218,-161 371,-254 635,-389 82,-41 158,-84 170,-95 47,-41 134,-171 169,-249 35,-79 35,-84 35,-206 -1,-112 -5,-134 -31,-210 -17,-47 -53,-125 -81,-174 -103,-179 -147,-336 -140,-499 6,-129 30,-196 100,-273 92,-100 214,-144 401,-144 195,0 376,49 622,169 302,148 646,422 827,657 167,218 301,454 358,630 25,80 30,110 30,197 0,156 23,265 73,340 54,81 193,225 282,291 110,83 103,82 162,28 69,-63 199,-107 318,-106 348,2 628,362 569,731 -23,146 -115,281 -242,356 -203,119 -453,81 -640,-97 -131,-125 -195,-280 -197,-474 l -1,-103 -99,-76 c -265,-205 -400,-381 -455,-597 -15,-60 -20,-112 -20,-215 0,-220 -16,-262 -209,-546 -151,-222 -217,-298 -411,-469 -158,-139 -189,-163 -312,-240 -295,-184 -577,-255 -758,-191 -127,45 -134,136 -28,373 57,128 164,448 188,563 27,129 50,194 102,287 77,141 147,199 346,289 232,104 495,261 727,432 352,261 736,661 947,986 117,181 142,223 202,343 134,267 193,442 248,737 14,75 14,394 0,455 -28,125 -57,221 -84,280 -83,179 -182,303 -331,413 -173,128 -377,202 -641,232 -90,10 -351,7 -451,-5 l -88,-11 -41,39 c -88,84 -149,107 -305,118 -331,23 -592,-165 -495,-357 16,-32 82,-92 125,-115 196,-101 494,-76 650,56 44,37 48,38 165,51 388,40 741,-60 954,-270 325,-319 354,-859 80,-1456 -276,-601 -892,-1211 -1544,-1529 -237,-116 -550,-221 -636,-213 -60,5 -265,66 -407,122 -670,262 -1315,817 -1672,1437 -328,571 -378,1134 -136,1510 197,304 598,457 1069,409 117,-13 121,-14 165,-51 156,-132 454,-157 650,-56 43,23 109,83 125,115 60,119 -20,250 -191,314 -118,45 -230,56 -373,37 z m 245,-36 c 33,-3 92,-19 132,-35 85,-36 155,-104 173,-168 9,-36 8,-46 -14,-88 -52,-103 -177,-155 -371,-156 -165,0 -289,45 -369,133 -86,95 -42,208 108,274 76,34 86,37 141,43 28,3 52,7 54,9 3,3 23,2 45,0 23,-3 68,-8 101,-12 z m 1265,-8 c 98,-11 231,-90 266,-159 37,-71 -12,-165 -119,-225 -85,-48 -158,-65 -282,-65 -194,1 -319,53 -371,156 -22,42 -23,52 -14,88 18,65 88,132 175,168 77,32 205,52 280,44 22,-2 51,-6 65,-7 z m -1824,-122 31,-6 -10,-47 c -7,-37 -5,-56 7,-86 9,-21 15,-40 13,-41 -2,-2 -44,1 -93,7 -116,15 -386,5 -484,-16 -456,-101 -725,-400 -771,-856 -12,-128 -1,-296 31,-440 71,-328 272,-725 534,-1054 102,-128 413,-439 536,-536 359,-284 724,-480 1100,-590 199,-59 219,-59 381,-10 383,115 741,307 1099,590 123,97 434,408 536,536 262,329 463,726 534,1054 32,144 43,312 31,440 -46,456 -315,755 -771,856 -98,21 -368,31 -484,16 -49,-6 -91,-9 -93,-7 -2,1 4,20 13,41 12,31 14,49 6,86 l -9,48 56,8 c 31,4 153,8 271,8 310,-1 449,-30 665,-136 341,-168 527,-449 576,-869 11,-88 4,-279 -11,-340 -5,-19 -17,-78 -26,-130 -27,-150 -94,-347 -180,-527 -297,-625 -853,-1214 -1534,-1623 -116,-70 -359,-194 -459,-234 -70,-28 -151,-86 -206,-147 -69,-77 -154,-286 -179,-444 -12,-70 -57,-217 -102,-330 -76,-192 -143,-383 -150,-422 -3,-22 -1,-59 6,-83 23,-86 101,-127 255,-137 153,-9 271,18 453,103 51,24 96,44 101,44 4,0 61,35 127,78 230,151 504,406 638,592 154,214 206,297 242,385 34,85 35,91 43,283 7,161 13,209 31,262 67,197 185,344 412,516 98,73 118,84 118,63 0,-17 48,-116 59,-124 23,-14 8,-35 -63,-88 -96,-72 -188,-166 -265,-267 -108,-144 -118,-178 -122,-425 -1,-72 -5,-137 -10,-145 -4,-8 -24,-59 -44,-113 -59,-154 -202,-383 -345,-552 -369,-435 -903,-756 -1337,-805 -290,-32 -487,94 -525,339 -23,148 4,249 150,551 96,197 113,252 114,364 2,128 -26,209 -120,354 -79,122 -140,180 -227,216 -182,75 -529,287 -745,455 -507,394 -891,854 -1124,1344 -86,180 -153,377 -180,527 -9,52 -21,111 -26,130 -15,61 -22,252 -11,340 47,402 219,676 534,848 152,83 297,128 487,152 76,9 458,5 516,-6 z M 6558,4459 c 155,-76 247,-234 246,-424 -1,-247 -155,-461 -384,-535 -59,-19 -85,-22 -159,-18 -115,7 -193,43 -272,125 -99,103 -136,214 -126,378 10,156 55,255 167,365 154,151 357,193 528,109 z" />
    <path
       style="fill:#005100;fill-opacity:1"
       inkscape:connector-curvature="0"
       id="path837"
       d="m 3204,6126 c -3,-7 -4,-73 -2,-147 2,-74 2,-223 1,-331 l -3,-198 -337,-2 -338,-3 -3,-369 -2,-368 204,7 c 112,4 266,4 341,0 l 136,-7 -2,-338 c -1,-185 1,-342 5,-349 5,-8 111,-11 376,-11 h 368 l 7,31 c 4,17 7,174 7,350 v 319 h 318 c 175,0 332,3 349,6 l 31,7 v 157 c 0,302 -12,551 -27,566 -12,11 -74,14 -343,14 h -328 l -7,257 c -4,141 -5,288 -2,326 3,37 3,75 0,83 -5,12 -58,14 -375,14 -291,-1 -370,-4 -374,-14 z m 706,-358 c 0,-178 -1,-334 0,-347 v -23 l 347,6 346,6 -6,-217 c -4,-120 -7,-269 -7,-331 v -113 l -342,2 -343,2 2,-352 c 1,-311 0,-352 -14,-347 -8,3 -156,6 -329,6 h -314 v 345 345 l -307,2 c -170,1 -323,2 -341,3 h -32 v 328 327 h 340 340 v 340 340 h 330 331 z" />
  </g>
</svg>
